<mxfile host="app.diagrams.net" modified="2023-08-31T20:49:01.163Z" agent="Mozilla/5.0 (Windows NT 10.0; Win64; x64) AppleWebKit/537.36 (KHTML, like Gecko) Chrome/116.0.0.0 Safari/537.36" etag="OnJOyC6Ewb2mqA0MJRgn" version="21.6.9" type="device">
  <diagram name="Page-1" id="42789a77-a242-8287-6e28-9cd8cfd52e62">
    <mxGraphModel dx="1894" dy="1314" grid="1" gridSize="10" guides="1" tooltips="1" connect="1" arrows="1" fold="1" page="1" pageScale="1" pageWidth="1100" pageHeight="850" background="none" math="0" shadow="0">
      <root>
        <mxCell id="0" />
        <mxCell id="1" parent="0" />
        <mxCell id="1ea317790d2ca983-13" value="L,&amp;nbsp;_" style="edgeStyle=none;rounded=1;html=1;labelBackgroundColor=none;startArrow=none;startFill=0;startSize=5;endArrow=classicThin;endFill=1;endSize=5;jettySize=auto;orthogonalLoop=1;strokeColor=#B3B3B3;strokeWidth=1;fontFamily=Verdana;fontSize=12" parent="1" source="1ea317790d2ca983-1" target="5TJmGQOhdWTkcNkg_cm5-1" edge="1">
          <mxGeometry relative="1" as="geometry">
            <mxPoint x="279.19361528153263" y="201.63728652994848" as="targetPoint" />
          </mxGeometry>
        </mxCell>
        <mxCell id="1ea317790d2ca983-1" value="0" style="ellipse;whiteSpace=wrap;html=1;rounded=0;shadow=1;comic=0;labelBackgroundColor=none;strokeWidth=1;fontFamily=Verdana;fontSize=12;align=center;" parent="1" vertex="1">
          <mxGeometry x="370" y="50" width="40" height="40" as="geometry" />
        </mxCell>
        <mxCell id="5TJmGQOhdWTkcNkg_cm5-1" value="1" style="ellipse;whiteSpace=wrap;html=1;rounded=0;shadow=1;comic=0;labelBackgroundColor=none;strokeWidth=1;fontFamily=Verdana;fontSize=12;align=center;" parent="1" vertex="1">
          <mxGeometry x="320" y="200" width="40" height="40" as="geometry" />
        </mxCell>
        <mxCell id="5TJmGQOhdWTkcNkg_cm5-3" value="L,&amp;nbsp;_, N" style="edgeStyle=none;rounded=1;html=1;labelBackgroundColor=none;startArrow=none;startFill=0;startSize=5;endArrow=classicThin;endFill=1;endSize=5;jettySize=auto;orthogonalLoop=1;strokeColor=#B3B3B3;strokeWidth=1;fontFamily=Verdana;fontSize=12;elbow=vertical;" parent="1" source="5TJmGQOhdWTkcNkg_cm5-1" target="5TJmGQOhdWTkcNkg_cm5-1" edge="1">
          <mxGeometry relative="1" as="geometry">
            <mxPoint x="420" y="220" as="targetPoint" />
            <mxPoint x="415" y="173" as="sourcePoint" />
            <Array as="points">
              <mxPoint x="280" y="190" />
            </Array>
            <mxPoint as="offset" />
          </mxGeometry>
        </mxCell>
        <mxCell id="CXH7mc3UCMZAINpEjaV8-1" value="2" style="ellipse;whiteSpace=wrap;html=1;rounded=0;shadow=1;comic=0;labelBackgroundColor=none;strokeWidth=1;fontFamily=Verdana;fontSize=12;align=center;" parent="1" vertex="1">
          <mxGeometry x="430" y="200" width="40" height="40" as="geometry" />
        </mxCell>
        <mxCell id="CXH7mc3UCMZAINpEjaV8-2" value="N" style="edgeStyle=none;rounded=1;html=1;labelBackgroundColor=none;startArrow=none;startFill=0;startSize=5;endArrow=classicThin;endFill=1;endSize=5;jettySize=auto;orthogonalLoop=1;strokeColor=#B3B3B3;strokeWidth=1;fontFamily=Verdana;fontSize=12" parent="1" source="1ea317790d2ca983-1" target="CXH7mc3UCMZAINpEjaV8-1" edge="1">
          <mxGeometry relative="1" as="geometry">
            <mxPoint x="365" y="217" as="targetPoint" />
            <mxPoint x="415" y="173" as="sourcePoint" />
          </mxGeometry>
        </mxCell>
        <mxCell id="CXH7mc3UCMZAINpEjaV8-3" value="Final" style="ellipse;whiteSpace=wrap;html=1;rounded=0;shadow=1;comic=0;labelBackgroundColor=none;strokeWidth=1;fontFamily=Verdana;fontSize=12;align=center;" parent="1" vertex="1">
          <mxGeometry x="320" y="405" width="40" height="40" as="geometry" />
        </mxCell>
        <mxCell id="CXH7mc3UCMZAINpEjaV8-4" value="C - L - N - _" style="edgeStyle=none;rounded=1;html=1;labelBackgroundColor=none;startArrow=none;startFill=0;startSize=5;endArrow=classicThin;endFill=1;endSize=5;jettySize=auto;orthogonalLoop=1;strokeColor=#B3B3B3;strokeWidth=1;fontFamily=Verdana;fontSize=12" parent="1" source="5TJmGQOhdWTkcNkg_cm5-1" target="CXH7mc3UCMZAINpEjaV8-3" edge="1">
          <mxGeometry relative="1" as="geometry">
            <mxPoint x="365" y="217" as="targetPoint" />
            <mxPoint x="415" y="173" as="sourcePoint" />
          </mxGeometry>
        </mxCell>
        <mxCell id="CXH7mc3UCMZAINpEjaV8-5" value="N" style="edgeStyle=none;rounded=1;html=1;labelBackgroundColor=none;startArrow=none;startFill=0;startSize=5;endArrow=classicThin;endFill=1;endSize=5;jettySize=auto;orthogonalLoop=1;strokeColor=#B3B3B3;strokeWidth=1;fontFamily=Verdana;fontSize=12;elbow=vertical;" parent="1" source="CXH7mc3UCMZAINpEjaV8-1" target="CXH7mc3UCMZAINpEjaV8-1" edge="1">
          <mxGeometry x="-0.0705" relative="1" as="geometry">
            <mxPoint x="312" y="239" as="targetPoint" />
            <mxPoint x="312" y="221" as="sourcePoint" />
            <Array as="points">
              <mxPoint x="520" y="220" />
              <mxPoint x="520" y="260" />
            </Array>
            <mxPoint as="offset" />
          </mxGeometry>
        </mxCell>
        <mxCell id="CXH7mc3UCMZAINpEjaV8-6" value="3" style="ellipse;whiteSpace=wrap;html=1;rounded=0;shadow=1;comic=0;labelBackgroundColor=none;strokeWidth=1;fontFamily=Verdana;fontSize=12;align=center;" parent="1" vertex="1">
          <mxGeometry x="430" y="290" width="40" height="40" as="geometry" />
        </mxCell>
        <mxCell id="CXH7mc3UCMZAINpEjaV8-7" value="_" style="edgeStyle=none;rounded=1;html=1;labelBackgroundColor=none;startArrow=none;startFill=0;startSize=5;endArrow=classicThin;endFill=1;endSize=5;jettySize=auto;orthogonalLoop=1;strokeColor=#B3B3B3;strokeWidth=1;fontFamily=Verdana;fontSize=12" parent="1" source="CXH7mc3UCMZAINpEjaV8-1" target="CXH7mc3UCMZAINpEjaV8-6" edge="1">
          <mxGeometry relative="1" as="geometry">
            <mxPoint x="448" y="214" as="targetPoint" />
            <mxPoint x="422" y="176" as="sourcePoint" />
          </mxGeometry>
        </mxCell>
        <mxCell id="CXH7mc3UCMZAINpEjaV8-9" value="l" style="edgeStyle=none;rounded=1;html=1;labelBackgroundColor=none;startArrow=none;startFill=0;startSize=5;endArrow=classicThin;endFill=1;endSize=5;jettySize=auto;orthogonalLoop=1;strokeColor=#B3B3B3;strokeWidth=1;fontFamily=Verdana;fontSize=12" parent="1" source="CXH7mc3UCMZAINpEjaV8-6" target="CXH7mc3UCMZAINpEjaV8-3" edge="1">
          <mxGeometry relative="1" as="geometry">
            <mxPoint x="480" y="300" as="targetPoint" />
            <mxPoint x="480" y="250" as="sourcePoint" />
          </mxGeometry>
        </mxCell>
        <mxCell id="CXH7mc3UCMZAINpEjaV8-10" value="8" style="ellipse;whiteSpace=wrap;html=1;rounded=0;shadow=1;comic=0;labelBackgroundColor=none;strokeWidth=1;fontFamily=Verdana;fontSize=12;align=center;" parent="1" vertex="1">
          <mxGeometry x="640" y="170" width="40" height="40" as="geometry" />
        </mxCell>
        <mxCell id="CXH7mc3UCMZAINpEjaV8-14" value="5" style="ellipse;whiteSpace=wrap;html=1;rounded=0;shadow=1;comic=0;labelBackgroundColor=none;strokeWidth=1;fontFamily=Verdana;fontSize=12;align=center;" parent="1" vertex="1">
          <mxGeometry x="560" y="260" width="40" height="40" as="geometry" />
        </mxCell>
        <mxCell id="CXH7mc3UCMZAINpEjaV8-18" value="N" style="edgeStyle=none;rounded=1;html=1;labelBackgroundColor=none;startArrow=none;startFill=0;startSize=5;endArrow=classicThin;endFill=1;endSize=5;jettySize=auto;orthogonalLoop=1;strokeColor=#B3B3B3;strokeWidth=1;fontFamily=Verdana;fontSize=12" parent="1" source="CXH7mc3UCMZAINpEjaV8-10" target="CXH7mc3UCMZAINpEjaV8-14" edge="1">
          <mxGeometry relative="1" as="geometry">
            <mxPoint x="571" y="205" as="targetPoint" />
            <mxPoint x="429" y="165" as="sourcePoint" />
          </mxGeometry>
        </mxCell>
        <mxCell id="CXH7mc3UCMZAINpEjaV8-21" value="N" style="edgeStyle=none;rounded=1;html=1;labelBackgroundColor=none;startArrow=none;startFill=0;startSize=5;endArrow=classicThin;endFill=1;endSize=5;jettySize=auto;orthogonalLoop=1;strokeColor=#B3B3B3;strokeWidth=1;fontFamily=Verdana;fontSize=12;elbow=vertical;" parent="1" source="CXH7mc3UCMZAINpEjaV8-14" target="CXH7mc3UCMZAINpEjaV8-14" edge="1">
          <mxGeometry x="-0.0271" relative="1" as="geometry">
            <mxPoint x="610" y="280" as="targetPoint" />
            <mxPoint x="613" y="270" as="sourcePoint" />
            <Array as="points">
              <mxPoint x="663" y="270" />
              <mxPoint x="663" y="310" />
            </Array>
            <mxPoint as="offset" />
          </mxGeometry>
        </mxCell>
        <mxCell id="CXH7mc3UCMZAINpEjaV8-22" value="6" style="ellipse;whiteSpace=wrap;html=1;rounded=0;shadow=1;comic=0;labelBackgroundColor=none;strokeWidth=1;fontFamily=Verdana;fontSize=12;align=center;" parent="1" vertex="1">
          <mxGeometry x="560" y="340" width="40" height="40" as="geometry" />
        </mxCell>
        <mxCell id="CXH7mc3UCMZAINpEjaV8-23" value="D, d" style="edgeStyle=none;rounded=1;html=1;labelBackgroundColor=none;startArrow=none;startFill=0;startSize=5;endArrow=classicThin;endFill=1;endSize=5;jettySize=auto;orthogonalLoop=1;strokeColor=#B3B3B3;strokeWidth=1;fontFamily=Verdana;fontSize=12" parent="1" source="CXH7mc3UCMZAINpEjaV8-14" target="CXH7mc3UCMZAINpEjaV8-22" edge="1">
          <mxGeometry relative="1" as="geometry">
            <mxPoint x="590" y="270" as="targetPoint" />
            <mxPoint x="590" y="230" as="sourcePoint" />
          </mxGeometry>
        </mxCell>
        <mxCell id="CXH7mc3UCMZAINpEjaV8-24" value="D, d" style="edgeStyle=none;rounded=1;html=1;labelBackgroundColor=none;startArrow=none;startFill=0;startSize=5;endArrow=classicThin;endFill=1;endSize=5;jettySize=auto;orthogonalLoop=1;strokeColor=#B3B3B3;strokeWidth=1;fontFamily=Verdana;fontSize=12" parent="1" source="CXH7mc3UCMZAINpEjaV8-10" target="CXH7mc3UCMZAINpEjaV8-22" edge="1">
          <mxGeometry x="-0.0399" y="4" relative="1" as="geometry">
            <mxPoint x="590" y="270" as="targetPoint" />
            <mxPoint x="590" y="230" as="sourcePoint" />
            <Array as="points">
              <mxPoint x="710" y="290" />
            </Array>
            <mxPoint as="offset" />
          </mxGeometry>
        </mxCell>
        <mxCell id="CXH7mc3UCMZAINpEjaV8-25" value="7" style="ellipse;whiteSpace=wrap;html=1;rounded=0;shadow=1;comic=0;labelBackgroundColor=none;strokeWidth=1;fontFamily=Verdana;fontSize=12;align=center;" parent="1" vertex="1">
          <mxGeometry x="530" y="420" width="40" height="40" as="geometry" />
        </mxCell>
        <mxCell id="CXH7mc3UCMZAINpEjaV8-26" value="+, -" style="edgeStyle=none;rounded=1;html=1;labelBackgroundColor=none;startArrow=none;startFill=0;startSize=5;endArrow=classicThin;endFill=1;endSize=5;jettySize=auto;orthogonalLoop=1;strokeColor=#B3B3B3;strokeWidth=1;fontFamily=Verdana;fontSize=12" parent="1" source="CXH7mc3UCMZAINpEjaV8-22" target="CXH7mc3UCMZAINpEjaV8-25" edge="1">
          <mxGeometry relative="1" as="geometry">
            <mxPoint x="590" y="350" as="targetPoint" />
            <mxPoint x="590" y="310" as="sourcePoint" />
          </mxGeometry>
        </mxCell>
        <mxCell id="CXH7mc3UCMZAINpEjaV8-28" value="4" style="ellipse;whiteSpace=wrap;html=1;rounded=0;shadow=1;comic=0;labelBackgroundColor=none;strokeWidth=1;fontFamily=Verdana;fontSize=12;align=center;" parent="1" vertex="1">
          <mxGeometry x="530" y="150" width="40" height="40" as="geometry" />
        </mxCell>
        <mxCell id="CXH7mc3UCMZAINpEjaV8-31" value="." style="edgeStyle=none;rounded=1;html=1;labelBackgroundColor=none;startArrow=none;startFill=0;startSize=5;endArrow=classicThin;endFill=1;endSize=5;jettySize=auto;orthogonalLoop=1;strokeColor=#B3B3B3;strokeWidth=1;fontFamily=Verdana;fontSize=12" parent="1" source="1ea317790d2ca983-1" target="CXH7mc3UCMZAINpEjaV8-28" edge="1">
          <mxGeometry relative="1" as="geometry">
            <mxPoint x="623" y="295" as="targetPoint" />
            <mxPoint x="677" y="235" as="sourcePoint" />
          </mxGeometry>
        </mxCell>
        <mxCell id="CXH7mc3UCMZAINpEjaV8-32" value="." style="edgeStyle=none;rounded=1;html=1;labelBackgroundColor=none;startArrow=none;startFill=0;startSize=5;endArrow=classicThin;endFill=1;endSize=5;jettySize=auto;orthogonalLoop=1;strokeColor=#B3B3B3;strokeWidth=1;fontFamily=Verdana;fontSize=12" parent="1" source="CXH7mc3UCMZAINpEjaV8-1" target="CXH7mc3UCMZAINpEjaV8-10" edge="1">
          <mxGeometry relative="1" as="geometry">
            <mxPoint x="633" y="305" as="targetPoint" />
            <mxPoint x="687" y="245" as="sourcePoint" />
          </mxGeometry>
        </mxCell>
        <mxCell id="CXH7mc3UCMZAINpEjaV8-35" value="N" style="edgeStyle=none;rounded=1;html=1;labelBackgroundColor=none;startArrow=none;startFill=0;startSize=5;endArrow=classicThin;endFill=1;endSize=5;jettySize=auto;orthogonalLoop=1;strokeColor=#B3B3B3;strokeWidth=1;fontFamily=Verdana;fontSize=12;entryX=0;entryY=0;entryDx=0;entryDy=0;" parent="1" source="CXH7mc3UCMZAINpEjaV8-28" target="CXH7mc3UCMZAINpEjaV8-14" edge="1">
          <mxGeometry relative="1" as="geometry">
            <mxPoint x="500" y="160" as="targetPoint" />
            <mxPoint x="430" y="160" as="sourcePoint" />
          </mxGeometry>
        </mxCell>
        <mxCell id="CXH7mc3UCMZAINpEjaV8-38" value="C-N-d-D" style="edgeStyle=none;rounded=1;html=1;labelBackgroundColor=none;startArrow=none;startFill=0;startSize=5;endArrow=classicThin;endFill=1;endSize=5;jettySize=auto;orthogonalLoop=1;strokeColor=#B3B3B3;strokeWidth=1;fontFamily=Verdana;fontSize=12;exitX=0;exitY=1;exitDx=0;exitDy=0;" parent="1" source="CXH7mc3UCMZAINpEjaV8-14" edge="1">
          <mxGeometry relative="1" as="geometry">
            <mxPoint x="364" y="421" as="targetPoint" />
            <mxPoint x="446" y="334" as="sourcePoint" />
          </mxGeometry>
        </mxCell>
        <mxCell id="CXH7mc3UCMZAINpEjaV8-39" value="C-N-d-D" style="edgeStyle=none;rounded=1;html=1;labelBackgroundColor=none;startArrow=none;startFill=0;startSize=5;endArrow=classicThin;endFill=1;endSize=5;jettySize=auto;orthogonalLoop=1;strokeColor=#B3B3B3;strokeWidth=1;fontFamily=Verdana;fontSize=12" parent="1" source="CXH7mc3UCMZAINpEjaV8-10" target="CXH7mc3UCMZAINpEjaV8-3" edge="1">
          <mxGeometry x="-0.0399" y="4" relative="1" as="geometry">
            <mxPoint x="608" y="361" as="targetPoint" />
            <mxPoint x="679" y="218" as="sourcePoint" />
            <Array as="points">
              <mxPoint x="750" y="320" />
              <mxPoint x="600" y="500" />
            </Array>
            <mxPoint as="offset" />
          </mxGeometry>
        </mxCell>
        <mxCell id="CXH7mc3UCMZAINpEjaV8-40" value="9" style="ellipse;whiteSpace=wrap;html=1;rounded=0;shadow=1;comic=0;labelBackgroundColor=none;strokeWidth=1;fontFamily=Verdana;fontSize=12;align=center;" parent="1" vertex="1">
          <mxGeometry x="450" y="510" width="40" height="40" as="geometry" />
        </mxCell>
        <mxCell id="CXH7mc3UCMZAINpEjaV8-41" value="N" style="edgeStyle=none;rounded=1;html=1;labelBackgroundColor=none;startArrow=none;startFill=0;startSize=5;endArrow=classicThin;endFill=1;endSize=5;jettySize=auto;orthogonalLoop=1;strokeColor=#B3B3B3;strokeWidth=1;fontFamily=Verdana;fontSize=12" parent="1" source="CXH7mc3UCMZAINpEjaV8-25" target="CXH7mc3UCMZAINpEjaV8-40" edge="1">
          <mxGeometry relative="1" as="geometry">
            <mxPoint x="567" y="431" as="targetPoint" />
            <mxPoint x="583" y="389" as="sourcePoint" />
          </mxGeometry>
        </mxCell>
        <mxCell id="CXH7mc3UCMZAINpEjaV8-42" value="N" style="edgeStyle=none;rounded=1;html=1;labelBackgroundColor=none;startArrow=none;startFill=0;startSize=5;endArrow=classicThin;endFill=1;endSize=5;jettySize=auto;orthogonalLoop=1;strokeColor=#B3B3B3;strokeWidth=1;fontFamily=Verdana;fontSize=12;elbow=vertical;" parent="1" source="CXH7mc3UCMZAINpEjaV8-40" target="CXH7mc3UCMZAINpEjaV8-40" edge="1">
          <mxGeometry x="-0.0271" relative="1" as="geometry">
            <mxPoint x="490" y="567" as="targetPoint" />
            <mxPoint x="491" y="558" as="sourcePoint" />
            <Array as="points">
              <mxPoint x="530" y="540" />
              <mxPoint x="520" y="570" />
            </Array>
            <mxPoint as="offset" />
          </mxGeometry>
        </mxCell>
        <mxCell id="CXH7mc3UCMZAINpEjaV8-43" value="&#xa;&lt;span style=&quot;color: rgb(0, 0, 0); font-family: Helvetica; font-size: 11px; font-style: normal; font-variant-ligatures: normal; font-variant-caps: normal; font-weight: 400; letter-spacing: normal; orphans: 2; text-align: center; text-indent: 0px; text-transform: none; widows: 2; word-spacing: 0px; -webkit-text-stroke-width: 0px; background-color: rgb(255, 255, 255); text-decoration-thickness: initial; text-decoration-style: initial; text-decoration-color: initial; float: none; display: inline !important;&quot;&gt;C-N-d-D&lt;/span&gt;&#xa;&#xa;" style="edgeStyle=none;rounded=1;html=1;labelBackgroundColor=none;startArrow=none;startFill=0;startSize=5;endArrow=classicThin;endFill=1;endSize=5;jettySize=auto;orthogonalLoop=1;strokeColor=#B3B3B3;strokeWidth=1;fontFamily=Verdana;fontSize=12" parent="1" source="CXH7mc3UCMZAINpEjaV8-40" target="CXH7mc3UCMZAINpEjaV8-3" edge="1">
          <mxGeometry x="-0.1848" y="7" relative="1" as="geometry">
            <mxPoint x="364" y="421" as="targetPoint" />
            <mxPoint x="446" y="334" as="sourcePoint" />
            <mxPoint x="1" as="offset" />
          </mxGeometry>
        </mxCell>
        <mxCell id="CXH7mc3UCMZAINpEjaV8-45" value="10" style="ellipse;whiteSpace=wrap;html=1;rounded=0;shadow=1;comic=0;labelBackgroundColor=none;strokeWidth=1;fontFamily=Verdana;fontSize=12;align=center;" parent="1" vertex="1">
          <mxGeometry x="820" y="160" width="40" height="40" as="geometry" />
        </mxCell>
        <mxCell id="CXH7mc3UCMZAINpEjaV8-46" value="-" style="edgeStyle=none;rounded=1;html=1;labelBackgroundColor=none;startArrow=none;startFill=0;startSize=5;endArrow=classicThin;endFill=1;endSize=5;jettySize=auto;orthogonalLoop=1;strokeColor=#B3B3B3;strokeWidth=1;fontFamily=Verdana;fontSize=12" parent="1" source="1ea317790d2ca983-1" target="CXH7mc3UCMZAINpEjaV8-45" edge="1">
          <mxGeometry relative="1" as="geometry">
            <mxPoint x="543" y="169" as="targetPoint" />
            <mxPoint x="417" y="91" as="sourcePoint" />
          </mxGeometry>
        </mxCell>
        <mxCell id="CXH7mc3UCMZAINpEjaV8-48" value="11" style="ellipse;whiteSpace=wrap;html=1;rounded=0;shadow=1;comic=0;labelBackgroundColor=none;strokeWidth=1;fontFamily=Verdana;fontSize=12;align=center;" parent="1" vertex="1">
          <mxGeometry x="820" y="260" width="40" height="40" as="geometry" />
        </mxCell>
        <mxCell id="CXH7mc3UCMZAINpEjaV8-49" value="=" style="edgeStyle=none;rounded=1;html=1;labelBackgroundColor=none;startArrow=none;startFill=0;startSize=5;endArrow=classicThin;endFill=1;endSize=5;jettySize=auto;orthogonalLoop=1;strokeColor=#B3B3B3;strokeWidth=1;fontFamily=Verdana;fontSize=12" parent="1" source="CXH7mc3UCMZAINpEjaV8-45" target="CXH7mc3UCMZAINpEjaV8-48" edge="1">
          <mxGeometry relative="1" as="geometry">
            <mxPoint x="543" y="169" as="targetPoint" />
            <mxPoint x="417" y="91" as="sourcePoint" />
          </mxGeometry>
        </mxCell>
        <mxCell id="CXH7mc3UCMZAINpEjaV8-50" value="Final" style="ellipse;whiteSpace=wrap;html=1;rounded=0;shadow=1;comic=0;labelBackgroundColor=none;strokeWidth=1;fontFamily=Verdana;fontSize=12;align=center;" parent="1" vertex="1">
          <mxGeometry x="820" y="365" width="40" height="40" as="geometry" />
        </mxCell>
        <mxCell id="CXH7mc3UCMZAINpEjaV8-51" value="C" style="edgeStyle=none;rounded=1;html=1;labelBackgroundColor=none;startArrow=none;startFill=0;startSize=5;endArrow=classicThin;endFill=1;endSize=5;jettySize=auto;orthogonalLoop=1;strokeColor=#B3B3B3;strokeWidth=1;fontFamily=Verdana;fontSize=12" parent="1" source="CXH7mc3UCMZAINpEjaV8-48" target="CXH7mc3UCMZAINpEjaV8-50" edge="1">
          <mxGeometry relative="1" as="geometry">
            <mxPoint x="850" y="270" as="targetPoint" />
            <mxPoint x="850" y="210" as="sourcePoint" />
          </mxGeometry>
        </mxCell>
        <mxCell id="CXH7mc3UCMZAINpEjaV8-52" value="12" style="ellipse;whiteSpace=wrap;html=1;rounded=0;shadow=1;comic=0;labelBackgroundColor=none;strokeWidth=1;fontFamily=Verdana;fontSize=12;align=center;" parent="1" vertex="1">
          <mxGeometry x="900" y="160" width="40" height="40" as="geometry" />
        </mxCell>
        <mxCell id="CXH7mc3UCMZAINpEjaV8-53" value="+, /" style="edgeStyle=none;rounded=1;html=1;labelBackgroundColor=none;startArrow=none;startFill=0;startSize=5;endArrow=classicThin;endFill=1;endSize=5;jettySize=auto;orthogonalLoop=1;strokeColor=#B3B3B3;strokeWidth=1;fontFamily=Verdana;fontSize=12" parent="1" edge="1">
          <mxGeometry relative="1" as="geometry">
            <mxPoint x="901.3156322764007" y="172.86596868735285" as="targetPoint" />
            <mxPoint x="409.9154170220372" y="71.83743430858078" as="sourcePoint" />
            <Array as="points">
              <mxPoint x="710" y="100" />
            </Array>
          </mxGeometry>
        </mxCell>
        <mxCell id="CXH7mc3UCMZAINpEjaV8-54" value="C-=" style="edgeStyle=none;rounded=1;html=1;labelBackgroundColor=none;startArrow=none;startFill=0;startSize=5;endArrow=classicThin;endFill=1;endSize=5;jettySize=auto;orthogonalLoop=1;strokeColor=#B3B3B3;strokeWidth=1;fontFamily=Verdana;fontSize=12" parent="1" source="CXH7mc3UCMZAINpEjaV8-45" target="CXH7mc3UCMZAINpEjaV8-50" edge="1">
          <mxGeometry x="-0.0218" relative="1" as="geometry">
            <mxPoint x="650" y="203" as="targetPoint" />
            <mxPoint x="480" y="227" as="sourcePoint" />
            <Array as="points">
              <mxPoint x="780" y="280" />
            </Array>
            <mxPoint as="offset" />
          </mxGeometry>
        </mxCell>
        <mxCell id="CXH7mc3UCMZAINpEjaV8-55" value="C" style="edgeStyle=none;rounded=1;html=1;labelBackgroundColor=none;startArrow=none;startFill=0;startSize=5;endArrow=classicThin;endFill=1;endSize=5;jettySize=auto;orthogonalLoop=1;strokeColor=#B3B3B3;strokeWidth=1;fontFamily=Verdana;fontSize=12" parent="1" source="CXH7mc3UCMZAINpEjaV8-52" target="CXH7mc3UCMZAINpEjaV8-50" edge="1">
          <mxGeometry relative="1" as="geometry">
            <mxPoint x="850" y="375" as="targetPoint" />
            <mxPoint x="850" y="310" as="sourcePoint" />
          </mxGeometry>
        </mxCell>
        <mxCell id="CXH7mc3UCMZAINpEjaV8-57" value="13" style="ellipse;whiteSpace=wrap;html=1;rounded=0;shadow=1;comic=0;labelBackgroundColor=none;strokeWidth=1;fontFamily=Verdana;fontSize=12;align=center;" parent="1" vertex="1">
          <mxGeometry x="970" y="160" width="40" height="40" as="geometry" />
        </mxCell>
        <mxCell id="CXH7mc3UCMZAINpEjaV8-58" value="=" style="edgeStyle=none;rounded=1;html=1;labelBackgroundColor=none;startArrow=none;startFill=0;startSize=5;endArrow=classicThin;endFill=1;endSize=5;jettySize=auto;orthogonalLoop=1;strokeColor=#B3B3B3;strokeWidth=1;fontFamily=Verdana;fontSize=12" parent="1" source="1ea317790d2ca983-1" target="CXH7mc3UCMZAINpEjaV8-57" edge="1">
          <mxGeometry x="0.2999" relative="1" as="geometry">
            <mxPoint x="911" y="183" as="targetPoint" />
            <mxPoint x="420" y="82" as="sourcePoint" />
            <Array as="points">
              <mxPoint x="800" y="80" />
            </Array>
            <mxPoint as="offset" />
          </mxGeometry>
        </mxCell>
        <mxCell id="CXH7mc3UCMZAINpEjaV8-60" value="14" style="ellipse;whiteSpace=wrap;html=1;rounded=0;shadow=1;comic=0;labelBackgroundColor=none;strokeWidth=1;fontFamily=Verdana;fontSize=12;align=center;" parent="1" vertex="1">
          <mxGeometry x="970" y="250" width="40" height="40" as="geometry" />
        </mxCell>
        <mxCell id="CXH7mc3UCMZAINpEjaV8-61" value="=" style="edgeStyle=none;rounded=1;html=1;labelBackgroundColor=none;startArrow=none;startFill=0;startSize=5;endArrow=classicThin;endFill=1;endSize=5;jettySize=auto;orthogonalLoop=1;strokeColor=#B3B3B3;strokeWidth=1;fontFamily=Verdana;fontSize=12" parent="1" source="CXH7mc3UCMZAINpEjaV8-57" target="CXH7mc3UCMZAINpEjaV8-60" edge="1">
          <mxGeometry relative="1" as="geometry">
            <mxPoint x="850" y="270" as="targetPoint" />
            <mxPoint x="850" y="210" as="sourcePoint" />
          </mxGeometry>
        </mxCell>
        <mxCell id="CXH7mc3UCMZAINpEjaV8-62" value="C" style="edgeStyle=none;rounded=1;html=1;labelBackgroundColor=none;startArrow=none;startFill=0;startSize=5;endArrow=classicThin;endFill=1;endSize=5;jettySize=auto;orthogonalLoop=1;strokeColor=#B3B3B3;strokeWidth=1;fontFamily=Verdana;fontSize=12" parent="1" source="CXH7mc3UCMZAINpEjaV8-60" target="CXH7mc3UCMZAINpEjaV8-50" edge="1">
          <mxGeometry relative="1" as="geometry">
            <mxPoint x="850" y="375" as="targetPoint" />
            <mxPoint x="850" y="310" as="sourcePoint" />
          </mxGeometry>
        </mxCell>
        <mxCell id="CXH7mc3UCMZAINpEjaV8-63" value="15" style="ellipse;whiteSpace=wrap;html=1;rounded=0;shadow=1;comic=0;labelBackgroundColor=none;strokeWidth=1;fontFamily=Verdana;fontSize=12;align=center;" parent="1" vertex="1">
          <mxGeometry x="1040" y="160" width="40" height="40" as="geometry" />
        </mxCell>
        <mxCell id="CXH7mc3UCMZAINpEjaV8-64" value="&amp;lt;, &amp;gt;" style="edgeStyle=none;rounded=1;html=1;labelBackgroundColor=none;startArrow=none;startFill=0;startSize=5;endArrow=classicThin;endFill=1;endSize=5;jettySize=auto;orthogonalLoop=1;strokeColor=#B3B3B3;strokeWidth=1;fontFamily=Verdana;fontSize=12" parent="1" source="1ea317790d2ca983-1" target="CXH7mc3UCMZAINpEjaV8-63" edge="1">
          <mxGeometry x="0.3508" relative="1" as="geometry">
            <mxPoint x="982" y="181" as="targetPoint" />
            <mxPoint x="420" y="80" as="sourcePoint" />
            <Array as="points">
              <mxPoint x="880" y="60" />
            </Array>
            <mxPoint as="offset" />
          </mxGeometry>
        </mxCell>
        <mxCell id="CXH7mc3UCMZAINpEjaV8-66" value="16" style="ellipse;whiteSpace=wrap;html=1;rounded=0;shadow=1;comic=0;labelBackgroundColor=none;strokeWidth=1;fontFamily=Verdana;fontSize=12;align=center;" parent="1" vertex="1">
          <mxGeometry x="1060" y="310" width="40" height="40" as="geometry" />
        </mxCell>
        <mxCell id="CXH7mc3UCMZAINpEjaV8-67" value="C-=" style="edgeStyle=none;rounded=1;html=1;labelBackgroundColor=none;startArrow=none;startFill=0;startSize=5;endArrow=classicThin;endFill=1;endSize=5;jettySize=auto;orthogonalLoop=1;strokeColor=#B3B3B3;strokeWidth=1;fontFamily=Verdana;fontSize=12" parent="1" source="CXH7mc3UCMZAINpEjaV8-63" target="CXH7mc3UCMZAINpEjaV8-50" edge="1">
          <mxGeometry relative="1" as="geometry">
            <mxPoint x="857" y="376" as="targetPoint" />
            <mxPoint x="923" y="209" as="sourcePoint" />
            <Array as="points">
              <mxPoint x="1020" y="310" />
            </Array>
          </mxGeometry>
        </mxCell>
        <mxCell id="CXH7mc3UCMZAINpEjaV8-69" value="=" style="edgeStyle=none;rounded=1;html=1;labelBackgroundColor=none;startArrow=none;startFill=0;startSize=5;endArrow=classicThin;endFill=1;endSize=5;jettySize=auto;orthogonalLoop=1;strokeColor=#B3B3B3;strokeWidth=1;fontFamily=Verdana;fontSize=12" parent="1" source="CXH7mc3UCMZAINpEjaV8-63" target="CXH7mc3UCMZAINpEjaV8-66" edge="1">
          <mxGeometry relative="1" as="geometry">
            <mxPoint x="1000" y="260" as="targetPoint" />
            <mxPoint x="1000" y="210" as="sourcePoint" />
          </mxGeometry>
        </mxCell>
        <mxCell id="CXH7mc3UCMZAINpEjaV8-70" value="C" style="edgeStyle=none;rounded=1;html=1;labelBackgroundColor=none;startArrow=none;startFill=0;startSize=5;endArrow=classicThin;endFill=1;endSize=5;jettySize=auto;orthogonalLoop=1;strokeColor=#B3B3B3;strokeWidth=1;fontFamily=Verdana;fontSize=12" parent="1" source="CXH7mc3UCMZAINpEjaV8-66" target="CXH7mc3UCMZAINpEjaV8-50" edge="1">
          <mxGeometry relative="1" as="geometry">
            <mxPoint x="1104" y="301" as="targetPoint" />
            <mxPoint x="1076" y="209" as="sourcePoint" />
          </mxGeometry>
        </mxCell>
        <mxCell id="CXH7mc3UCMZAINpEjaV8-71" value="17" style="ellipse;whiteSpace=wrap;html=1;rounded=0;shadow=1;comic=0;labelBackgroundColor=none;strokeWidth=1;fontFamily=Verdana;fontSize=12;align=center;" parent="1" vertex="1">
          <mxGeometry x="1110" y="160" width="40" height="40" as="geometry" />
        </mxCell>
        <mxCell id="CXH7mc3UCMZAINpEjaV8-72" value="!" style="edgeStyle=none;rounded=1;html=1;labelBackgroundColor=none;startArrow=none;startFill=0;startSize=5;endArrow=classicThin;endFill=1;endSize=5;jettySize=auto;orthogonalLoop=1;strokeColor=#B3B3B3;strokeWidth=1;fontFamily=Verdana;fontSize=12" parent="1" source="1ea317790d2ca983-1" target="CXH7mc3UCMZAINpEjaV8-71" edge="1">
          <mxGeometry x="0.4647" y="1" relative="1" as="geometry">
            <mxPoint x="1053" y="179" as="targetPoint" />
            <mxPoint x="420" y="80" as="sourcePoint" />
            <Array as="points">
              <mxPoint x="990" y="30" />
            </Array>
            <mxPoint as="offset" />
          </mxGeometry>
        </mxCell>
        <mxCell id="CXH7mc3UCMZAINpEjaV8-74" value="!" style="edgeStyle=none;rounded=1;html=1;labelBackgroundColor=none;startArrow=none;startFill=0;startSize=5;endArrow=classicThin;endFill=1;endSize=5;jettySize=auto;orthogonalLoop=1;strokeColor=#B3B3B3;strokeWidth=1;fontFamily=Verdana;fontSize=12" parent="1" source="CXH7mc3UCMZAINpEjaV8-71" target="CXH7mc3UCMZAINpEjaV8-50" edge="1">
          <mxGeometry relative="1" as="geometry">
            <mxPoint x="1137.8842789082069" y="250.11222173713998" as="targetPoint" />
            <mxPoint x="1000" y="210" as="sourcePoint" />
            <Array as="points">
              <mxPoint x="1130" y="360" />
            </Array>
          </mxGeometry>
        </mxCell>
        <mxCell id="CXH7mc3UCMZAINpEjaV8-76" value="L" style="edgeStyle=none;rounded=1;html=1;labelBackgroundColor=none;startArrow=none;startFill=0;startSize=5;endArrow=classicThin;endFill=1;endSize=5;jettySize=auto;orthogonalLoop=1;strokeColor=#B3B3B3;strokeWidth=1;fontFamily=Verdana;fontSize=12" parent="1" source="CXH7mc3UCMZAINpEjaV8-28" target="CXH7mc3UCMZAINpEjaV8-3" edge="1">
          <mxGeometry x="-0.7251" y="-5" relative="1" as="geometry">
            <mxPoint x="460" y="300" as="targetPoint" />
            <mxPoint x="460" y="250" as="sourcePoint" />
            <Array as="points">
              <mxPoint x="400" y="180" />
            </Array>
            <mxPoint as="offset" />
          </mxGeometry>
        </mxCell>
        <mxCell id="CXH7mc3UCMZAINpEjaV8-78" value="18" style="ellipse;whiteSpace=wrap;html=1;rounded=0;shadow=1;comic=0;labelBackgroundColor=none;strokeWidth=1;fontFamily=Verdana;fontSize=12;align=center;" parent="1" vertex="1">
          <mxGeometry x="140" y="150" width="40" height="40" as="geometry" />
        </mxCell>
        <mxCell id="CXH7mc3UCMZAINpEjaV8-79" value="{, }, (, ), &quot;;&quot;, &quot;,&quot;" style="edgeStyle=none;rounded=1;html=1;labelBackgroundColor=none;startArrow=none;startFill=0;startSize=5;endArrow=classicThin;endFill=1;endSize=5;jettySize=auto;orthogonalLoop=1;strokeColor=#B3B3B3;strokeWidth=1;fontFamily=Verdana;fontSize=12" parent="1" edge="1">
          <mxGeometry relative="1" as="geometry">
            <mxPoint x="178.33534813339952" y="162.01157031532387" as="targetPoint" />
            <mxPoint x="371.642859280792" y="77.93822301371142" as="sourcePoint" />
          </mxGeometry>
        </mxCell>
        <mxCell id="CXH7mc3UCMZAINpEjaV8-80" value="C" style="edgeStyle=none;rounded=1;html=1;labelBackgroundColor=none;startArrow=none;startFill=0;startSize=5;endArrow=classicThin;endFill=1;endSize=5;jettySize=auto;orthogonalLoop=1;strokeColor=#B3B3B3;strokeWidth=1;fontFamily=Verdana;fontSize=12" parent="1" source="CXH7mc3UCMZAINpEjaV8-78" target="CXH7mc3UCMZAINpEjaV8-3" edge="1">
          <mxGeometry relative="1" as="geometry">
            <mxPoint x="350" y="415" as="targetPoint" />
            <mxPoint x="350" y="250" as="sourcePoint" />
          </mxGeometry>
        </mxCell>
        <mxCell id="CXH7mc3UCMZAINpEjaV8-81" value="19" style="ellipse;whiteSpace=wrap;html=1;rounded=0;shadow=1;comic=0;labelBackgroundColor=none;strokeWidth=1;fontFamily=Verdana;fontSize=12;align=center;" parent="1" vertex="1">
          <mxGeometry x="200" y="40" width="40" height="40" as="geometry" />
        </mxCell>
        <mxCell id="CXH7mc3UCMZAINpEjaV8-82" value="*" style="edgeStyle=none;rounded=1;html=1;labelBackgroundColor=none;startArrow=none;startFill=0;startSize=5;endArrow=classicThin;endFill=1;endSize=5;jettySize=auto;orthogonalLoop=1;strokeColor=#B3B3B3;strokeWidth=1;fontFamily=Verdana;fontSize=12" parent="1" source="1ea317790d2ca983-1" target="CXH7mc3UCMZAINpEjaV8-81" edge="1">
          <mxGeometry relative="1" as="geometry">
            <mxPoint x="356" y="211" as="targetPoint" />
            <mxPoint x="394" y="99" as="sourcePoint" />
          </mxGeometry>
        </mxCell>
        <mxCell id="CXH7mc3UCMZAINpEjaV8-84" value="20" style="ellipse;whiteSpace=wrap;html=1;rounded=0;shadow=1;comic=0;labelBackgroundColor=none;strokeWidth=1;fontFamily=Verdana;fontSize=12;align=center;" parent="1" vertex="1">
          <mxGeometry x="20" y="40" width="40" height="40" as="geometry" />
        </mxCell>
        <mxCell id="CXH7mc3UCMZAINpEjaV8-85" value="*" style="edgeStyle=none;rounded=1;html=1;labelBackgroundColor=none;startArrow=none;startFill=0;startSize=5;endArrow=classicThin;endFill=1;endSize=5;jettySize=auto;orthogonalLoop=1;strokeColor=#B3B3B3;strokeWidth=1;fontFamily=Verdana;fontSize=12" parent="1" source="CXH7mc3UCMZAINpEjaV8-81" target="CXH7mc3UCMZAINpEjaV8-84" edge="1">
          <mxGeometry relative="1" as="geometry">
            <mxPoint x="356" y="211" as="targetPoint" />
            <mxPoint x="394" y="99" as="sourcePoint" />
          </mxGeometry>
        </mxCell>
        <mxCell id="CXH7mc3UCMZAINpEjaV8-88" value="C - \n" style="edgeStyle=none;rounded=1;html=1;labelBackgroundColor=none;startArrow=none;startFill=0;startSize=5;endArrow=classicThin;endFill=1;endSize=5;jettySize=auto;orthogonalLoop=1;strokeColor=#B3B3B3;strokeWidth=1;fontFamily=Verdana;fontSize=12;elbow=vertical;" parent="1" source="CXH7mc3UCMZAINpEjaV8-84" target="CXH7mc3UCMZAINpEjaV8-84" edge="1">
          <mxGeometry x="-0.0371" relative="1" as="geometry">
            <mxPoint x="127" y="211" as="targetPoint" />
            <mxPoint x="127" y="193" as="sourcePoint" />
            <Array as="points">
              <mxPoint x="-30" y="50" />
              <mxPoint x="-30" y="90" />
            </Array>
            <mxPoint as="offset" />
          </mxGeometry>
        </mxCell>
        <mxCell id="CXH7mc3UCMZAINpEjaV8-90" value="C - *" style="edgeStyle=none;rounded=1;html=1;labelBackgroundColor=none;startArrow=none;startFill=0;startSize=5;endArrow=classicThin;endFill=1;endSize=5;jettySize=auto;orthogonalLoop=1;strokeColor=#B3B3B3;strokeWidth=1;fontFamily=Verdana;fontSize=12;" parent="1" source="CXH7mc3UCMZAINpEjaV8-81" target="CXH7mc3UCMZAINpEjaV8-3" edge="1">
          <mxGeometry x="-0.3143" relative="1" as="geometry">
            <mxPoint x="338" y="419" as="targetPoint" />
            <mxPoint x="182" y="196" as="sourcePoint" />
            <Array as="points">
              <mxPoint x="80" y="170" />
            </Array>
            <mxPoint as="offset" />
          </mxGeometry>
        </mxCell>
        <mxCell id="CXH7mc3UCMZAINpEjaV8-91" value="\n" style="edgeStyle=none;rounded=1;html=1;labelBackgroundColor=none;startArrow=none;startFill=0;startSize=5;endArrow=classicThin;endFill=1;endSize=5;jettySize=auto;orthogonalLoop=1;strokeColor=#B3B3B3;strokeWidth=1;fontFamily=Verdana;fontSize=12;" parent="1" source="CXH7mc3UCMZAINpEjaV8-84" target="CXH7mc3UCMZAINpEjaV8-3" edge="1">
          <mxGeometry x="-0.6562" relative="1" as="geometry">
            <mxPoint x="330" y="430" as="targetPoint" />
            <mxPoint x="214" y="82" as="sourcePoint" />
            <Array as="points">
              <mxPoint x="30" y="160" />
            </Array>
            <mxPoint as="offset" />
          </mxGeometry>
        </mxCell>
        <mxCell id="CXH7mc3UCMZAINpEjaV8-92" value="21" style="ellipse;whiteSpace=wrap;html=1;rounded=0;shadow=1;comic=0;labelBackgroundColor=none;strokeWidth=1;fontFamily=Verdana;fontSize=12;align=center;" parent="1" vertex="1">
          <mxGeometry x="-160" y="50" width="40" height="40" as="geometry" />
        </mxCell>
        <mxCell id="CXH7mc3UCMZAINpEjaV8-93" value="%" style="edgeStyle=none;rounded=1;html=1;labelBackgroundColor=none;startArrow=none;startFill=0;startSize=5;endArrow=classicThin;endFill=1;endSize=5;jettySize=auto;orthogonalLoop=1;strokeColor=#B3B3B3;strokeWidth=1;fontFamily=Verdana;fontSize=12" parent="1" source="1ea317790d2ca983-1" target="CXH7mc3UCMZAINpEjaV8-92" edge="1">
          <mxGeometry x="-0.2411" relative="1" as="geometry">
            <mxPoint x="250" y="71" as="targetPoint" />
            <mxPoint x="380" y="79" as="sourcePoint" />
            <Array as="points">
              <mxPoint x="190" y="-10" />
            </Array>
            <mxPoint as="offset" />
          </mxGeometry>
        </mxCell>
        <mxCell id="CXH7mc3UCMZAINpEjaV8-94" value="C - %" style="edgeStyle=none;rounded=1;html=1;labelBackgroundColor=none;startArrow=none;startFill=0;startSize=5;endArrow=classicThin;endFill=1;endSize=5;jettySize=auto;orthogonalLoop=1;strokeColor=#B3B3B3;strokeWidth=1;fontFamily=Verdana;fontSize=12;elbow=vertical;" parent="1" source="CXH7mc3UCMZAINpEjaV8-92" target="CXH7mc3UCMZAINpEjaV8-92" edge="1">
          <mxGeometry x="-0.0371" relative="1" as="geometry">
            <mxPoint x="-178" y="88" as="targetPoint" />
            <mxPoint x="-180" y="77" as="sourcePoint" />
            <Array as="points">
              <mxPoint x="-230" y="70" />
              <mxPoint x="-230" y="110" />
            </Array>
            <mxPoint as="offset" />
          </mxGeometry>
        </mxCell>
        <mxCell id="CXH7mc3UCMZAINpEjaV8-95" value="%" style="edgeStyle=none;rounded=1;html=1;labelBackgroundColor=none;startArrow=none;startFill=0;startSize=5;endArrow=classicThin;endFill=1;endSize=5;jettySize=auto;orthogonalLoop=1;strokeColor=#B3B3B3;strokeWidth=1;fontFamily=Verdana;fontSize=12" parent="1" source="CXH7mc3UCMZAINpEjaV8-92" target="CXH7mc3UCMZAINpEjaV8-3" edge="1">
          <mxGeometry relative="1" as="geometry">
            <mxPoint x="70" y="70" as="targetPoint" />
            <mxPoint x="210" y="70" as="sourcePoint" />
          </mxGeometry>
        </mxCell>
        <mxCell id="1zMnBbW68WMCpPOdpq3a-1" value="\s, \t, \n" style="edgeStyle=none;rounded=1;html=1;labelBackgroundColor=none;startArrow=none;startFill=0;startSize=5;endArrow=classicThin;endFill=1;endSize=5;jettySize=auto;orthogonalLoop=1;strokeColor=#B3B3B3;strokeWidth=1;fontFamily=Verdana;fontSize=12;exitX=0;exitY=0;exitDx=0;exitDy=0;entryX=1;entryY=0;entryDx=0;entryDy=0;" edge="1" parent="1" source="1ea317790d2ca983-1" target="1ea317790d2ca983-1">
          <mxGeometry y="10" relative="1" as="geometry">
            <mxPoint x="440" y="10" as="targetPoint" />
            <mxPoint x="380" y="79" as="sourcePoint" />
            <Array as="points">
              <mxPoint x="370" y="40" />
              <mxPoint x="390" y="20" />
              <mxPoint x="410" y="40" />
            </Array>
            <mxPoint x="-7" y="-3" as="offset" />
          </mxGeometry>
        </mxCell>
      </root>
    </mxGraphModel>
  </diagram>
</mxfile>
